<?xml version="1.0" encoding="UTF-8" standalone="no"?>
<!-- Created with Inkscape (http://www.inkscape.org/) -->

<svg
   width="1589.0621"
   height="365.25711"
   viewBox="0 0 420.43934 96.640946"
   version="1.1"
   id="svg5"
   inkscape:version="1.2.1 (9c6d41e410, 2022-07-14)"
   sodipodi:docname="Mobee Logo.svg"
   inkscape:export-filename="Mobee New Colors.jpg"
   inkscape:export-xdpi="96"
   inkscape:export-ydpi="96"
   xml:space="preserve"
   xmlns:inkscape="http://www.inkscape.org/namespaces/inkscape"
   xmlns:sodipodi="http://sodipodi.sourceforge.net/DTD/sodipodi-0.dtd"
   xmlns="http://www.w3.org/2000/svg"
   xmlns:svg="http://www.w3.org/2000/svg"><sodipodi:namedview
     id="namedview7"
     pagecolor="#ffffff"
     bordercolor="#999999"
     borderopacity="1"
     inkscape:pageshadow="0"
     inkscape:pageopacity="0"
     inkscape:pagecheckerboard="0"
     inkscape:document-units="px"
     showgrid="false"
     showborder="false"
     units="px"
     showguides="true"
     inkscape:guide-bbox="true"
     inkscape:object-nodes="false"
     inkscape:snap-midpoints="false"
     inkscape:object-paths="false"
     inkscape:snap-global="true"
     inkscape:snap-intersection-paths="false"
     inkscape:snap-smooth-nodes="false"
     inkscape:zoom="0.70710678"
     inkscape:cx="772.86771"
     inkscape:cy="196.57569"
     inkscape:window-width="1920"
     inkscape:window-height="1017"
     inkscape:window-x="-8"
     inkscape:window-y="-8"
     inkscape:window-maximized="1"
     inkscape:current-layer="layer1"
     inkscape:showpageshadow="0"
     inkscape:deskcolor="#d1d1d1" /><defs
     id="defs2" /><g
     inkscape:label="Layer 1"
     inkscape:groupmode="layer"
     id="layer1"
     transform="translate(262.9286,-65.959393)"><g
       id="g626"
       transform="translate(36.482743,-98.954166)"><rect
         style="fill:#009ca6;fill-opacity:1;stroke:none;stroke-width:1.21708;stroke-linejoin:round;stroke-miterlimit:4;stroke-dasharray:none"
         id="rect407"
         width="96.640961"
         height="96.640945"
         x="-63.666309"
         y="164.91356" /><path
         id="path409"
         style="color:#000000;fill:#ffffff;stroke-width:0.104868"
         d="m -24.50807,173.52534 c -0.88451,2e-5 -1.60143,0.71694 -1.60145,1.60146 2e-5,0.88452 0.71694,1.60144 1.60145,1.60145 0.56764,-2.6e-4 1.09277,-0.30069 1.38028,-0.79013 2.00292,1.49223 2.54954,4.01475 2.56057,6.37842 0.01,2.18203 -0.58904,4.52267 -0.78703,5.23586 l -5.544888,3.20238 v 13.04107 l 11.289238,6.52001 11.28923,-6.52001 v -13.04107 l -5.54437,-3.20238 c -0.19798,-0.71319 -0.7972,-3.05383 -0.78703,-5.23586 0.011,-2.36367 0.55713,-4.88619 2.56006,-6.37842 0.2875,0.48944 0.81264,0.78987 1.38027,0.79013 0.88452,-1e-5 1.60195,-0.71693 1.60197,-1.60145 -2e-5,-0.88452 -0.71745,-1.60144 -1.60197,-1.60146 -0.59958,5.3e-4 -1.1484,0.33601 -1.42265,0.8692 -3.05695,1.72242 -3.82693,5.10466 -3.84008,7.91838 -0.009,1.74791 0.26307,3.3324 0.47336,4.29483 l -4.10879,-2.37298 -4.1088,2.37298 c 0.21029,-0.96243 0.48203,-2.54692 0.47388,-4.29483 -0.0131,-2.81372 -0.78313,-6.19596 -3.84008,-7.91838 -0.27424,-0.53319 -0.82358,-0.8687 -1.42317,-0.8692 z m 8.89817,13.03435 9.27643,5.35781 v 10.71511 l -9.27643,5.35781 -9.27644,-5.35781 V 191.9175 Z m -15.215096,17.30076 v 5.2e-4 c -0.431109,-7.9e-4 -0.854628,0.1114 -1.225764,0.32557 a 2.3011945,2.3011945 0 0 0 -0.0078,0.004 l -15.47864,9.00824 -5.29e-4,5.3e-4 c -0.754187,0.43705 -1.216067,1.24538 -1.219047,2.10736 a 2.3011945,2.3011945 0 0 0 0,0.008 v 18.02061 c 1.2e-5,0.86507 0.462697,1.67769 1.219047,2.11615 l 5.29e-4,5.3e-4 7.247104,4.21731 a 2.3011945,2.3011945 0 0 0 2.784324,-0.36174 l 0.210325,-0.21084 a 2.3011945,2.3011945 0 0 0 -0.469223,-3.61528 l -6.103503,-3.55226 v -15.20786 l 13.038997,-7.58765 13.039506,7.58765 v 19.95641 a 2.3011945,2.3011945 0 0 0 0.17519,0.88005 2.3011945,2.3011945 0 0 0 0,0.001 2.3011945,2.3011945 0 0 0 0.49868,0.74569 2.3011945,2.3011945 0 0 0 0.74672,0.49919 2.3011945,2.3011945 0 0 0 0.88005,0.17518 h 0.28629 a 2.3011945,2.3011945 0 0 0 0.88005,-0.17518 2.3011945,2.3011945 0 0 0 0.74672,-0.49919 2.3011945,2.3011945 0 0 0 0.49868,-0.74569 2.3011945,2.3011945 0 0 0 0,-5.3e-4 2.3011945,2.3011945 0 0 0 0,-5.3e-4 2.3011945,2.3011945 0 0 0 0.17518,-0.88005 v -19.95641 l 13.03952,-7.58765 13.03899,7.58765 v 15.20786 l -6.1035,3.55224 a 2.3011945,2.3011945 0 0 0 -0.46922,3.61528 l 0.21032,0.21084 a 2.3011945,2.3011945 0 0 0 2.78433,0.36174 l 7.2471,-4.21732 5.3e-4,-5.3e-4 c 0.75636,-0.43845 1.21902,-1.25107 1.21905,-2.11615 v -18.0206 a 2.3011945,2.3011945 0 0 1 0,-5.3e-4 2.3011945,2.3011945 0 0 1 0,-5.3e-4 2.3011945,2.3011945 0 0 1 0,-5.3e-4 2.3011945,2.3011945 0 0 1 0,-5.3e-4 2.3011945,2.3011945 0 0 1 0,-10e-4 2.3011945,2.3011945 0 0 1 0,-5.3e-4 2.3011945,2.3011945 0 0 1 0,-5.3e-4 2.3011945,2.3011945 0 0 1 0,-5.2e-4 2.3011945,2.3011945 0 0 1 0,-5.3e-4 2.3011945,2.3011945 0 0 1 0,-5.3e-4 2.3011945,2.3011945 0 0 1 0,-5.3e-4 2.3011945,2.3011945 0 0 1 0,-5.3e-4 2.3011945,2.3011945 0 0 1 0,-5.3e-4 c -0.003,-0.86199 -0.46485,-1.67084 -1.21905,-2.10788 l -5.3e-4,-5.3e-4 -15.47864,-9.00772 a 2.3011945,2.3011945 0 0 0 -0.008,-0.005 c -0.37116,-0.21456 -0.79465,-0.32697 -1.22577,-0.32608 v -5.2e-4 c -0.42787,7.9e-4 -0.84838,0.11341 -1.2175,0.32659 a 2.3011945,2.3011945 0 0 0 -0.006,0.004 l -14.25547,8.29532 -14.254937,-8.2951 a 2.3011945,2.3011945 0 0 0 -0.0067,-0.004 c -0.369279,-0.21327 -0.789432,-0.32588 -1.217499,-0.3266 z m -0.0041,7.55406 -11.288717,6.52053 v 13.04055 l 11.288717,6.52053 11.289236,-6.52053 v -13.04055 z m 30.966586,0 -11.28923,6.52053 v 13.04055 l 11.28923,6.52053 11.28872,-6.52053 v -13.04055 z m -30.966586,2.32543 9.276436,5.35782 v 10.71511 l -9.276436,5.35781 -9.275919,-5.35781 v -10.71511 z m 30.966586,0 9.27592,5.35782 v 10.71511 l -9.27592,5.35781 -9.27592,-5.35781 v -10.71511 z m -26.772528,24.68635 v 3.21428 l 11.288718,6.52053 11.28924,-6.52053 v -3.21428 h -2.0128 v 2.05156 l -9.27644,5.35833 -9.27592,-5.35833 v -2.05156 z m 22.577958,5.67201 -11.28924,6.5195 -11.288718,-6.51898 v 2.32388 l 11.288718,6.52002 11.28924,-6.52002 z" /></g><g
       id="g622"
       transform="translate(24.375735,-15.444103)"
       inkscape:export-filename="circle-32.png"
       inkscape:export-xdpi="8.4105129"
       inkscape:export-ydpi="8.4105129"><ellipse
         style="fill:#009ca6;fill-opacity:1;stroke-width:1.05833;stroke-linecap:round;stroke-linejoin:round;paint-order:stroke markers fill;stop-color:#000000"
         id="path359"
         cx="-121.11134"
         cy="129.72397"
         rx="48.32048"
         ry="48.320473" /><path
         id="path409-4"
         style="color:#000000;fill:#ffffff;stroke-width:0.104868"
         d="m -130.27353,90.015278 c -0.88451,2e-5 -1.60143,0.71694 -1.60145,1.60146 2e-5,0.88452 0.71694,1.60144 1.60145,1.60145 0.56764,-2.6e-4 1.09277,-0.30069 1.38028,-0.79013 2.00292,1.49223 2.54954,4.01475 2.56057,6.37842 0.01,2.182032 -0.58904,4.522672 -0.78703,5.235862 l -5.54489,3.20238 v 13.04107 l 11.28924,6.52001 11.28923,-6.52001 v -13.04107 l -5.54437,-3.20238 c -0.19798,-0.71319 -0.7972,-3.05383 -0.78703,-5.235862 0.011,-2.36367 0.55713,-4.88619 2.56006,-6.37842 0.2875,0.48944 0.81264,0.78987 1.38027,0.79013 0.88452,-1e-5 1.60195,-0.71693 1.60197,-1.60145 -2e-5,-0.88452 -0.71745,-1.60144 -1.60197,-1.60146 -0.59958,5.3e-4 -1.1484,0.33601 -1.42265,0.8692 -3.05695,1.72242 -3.82693,5.10466 -3.84008,7.91838 -0.009,1.747912 0.26307,3.332402 0.47336,4.294832 l -4.10879,-2.37298 -4.1088,2.37298 c 0.21029,-0.96243 0.48203,-2.54692 0.47388,-4.294832 -0.0131,-2.81372 -0.78313,-6.19596 -3.84008,-7.91838 -0.27424,-0.53319 -0.82358,-0.8687 -1.42317,-0.8692 z m 8.89817,13.034352 9.27643,5.35781 v 10.71511 l -9.27643,5.35781 -9.27644,-5.35781 v -10.71511 z m -15.2151,17.30076 v 5.2e-4 c -0.43111,-7.9e-4 -0.85463,0.1114 -1.22576,0.32557 a 2.3011945,2.3011945 0 0 0 -0.008,0.004 l -15.47864,9.00824 -5.3e-4,5.3e-4 c -0.75419,0.43705 -1.21607,1.24538 -1.21905,2.10736 a 2.3011945,2.3011945 0 0 0 0,0.008 v 18.02061 c 10e-6,0.86507 0.4627,1.67769 1.21905,2.11615 l 5.3e-4,5.3e-4 7.2471,4.21731 a 2.3011945,2.3011945 0 0 0 2.78432,-0.36174 l 0.21033,-0.21084 a 2.3011945,2.3011945 0 0 0 -0.46922,-3.61528 l -6.10351,-3.55226 v -15.20786 l 13.039,-7.58765 13.03951,7.58765 v 19.95641 a 2.3011945,2.3011945 0 0 0 0.17519,0.88005 2.3011945,2.3011945 0 0 0 0,0.001 2.3011945,2.3011945 0 0 0 0.49868,0.74569 2.3011945,2.3011945 0 0 0 0.74672,0.49919 2.3011945,2.3011945 0 0 0 0.88005,0.17518 h 0.28629 a 2.3011945,2.3011945 0 0 0 0.88005,-0.17518 2.3011945,2.3011945 0 0 0 0.74672,-0.49919 2.3011945,2.3011945 0 0 0 0.49868,-0.74569 2.3011945,2.3011945 0 0 0 0,-5.3e-4 2.3011945,2.3011945 0 0 0 0,-5.3e-4 2.3011945,2.3011945 0 0 0 0.17518,-0.88005 v -19.95641 l 13.03952,-7.58765 13.038992,7.58765 v 15.20786 l -6.1035,3.55224 a 2.3011945,2.3011945 0 0 0 -0.46922,3.61528 l 0.21032,0.21084 a 2.3011945,2.3011945 0 0 0 2.78433,0.36174 l 7.2471,-4.21732 5.3e-4,-5.3e-4 c 0.75636,-0.43845 1.21902,-1.25107 1.21905,-2.11615 v -18.0206 a 2.3011945,2.3011945 0 0 1 0,-5.3e-4 2.3011945,2.3011945 0 0 1 0,-5.3e-4 2.3011945,2.3011945 0 0 1 0,-5.3e-4 2.3011945,2.3011945 0 0 1 0,-5.3e-4 2.3011945,2.3011945 0 0 1 0,-0.001 2.3011945,2.3011945 0 0 1 0,-5.3e-4 2.3011945,2.3011945 0 0 1 0,-5.3e-4 2.3011945,2.3011945 0 0 1 0,-5.2e-4 2.3011945,2.3011945 0 0 1 0,-5.3e-4 2.3011945,2.3011945 0 0 1 0,-5.3e-4 2.3011945,2.3011945 0 0 1 0,-5.3e-4 2.3011945,2.3011945 0 0 1 0,-5.3e-4 2.3011945,2.3011945 0 0 1 0,-5.3e-4 c -0.003,-0.86199 -0.46485,-1.67084 -1.21905,-2.10788 l -5.3e-4,-5.3e-4 -15.478642,-9.00772 a 2.3011945,2.3011945 0 0 0 -0.008,-0.005 c -0.37116,-0.21456 -0.79465,-0.32697 -1.22577,-0.32608 v -5.2e-4 c -0.42787,7.9e-4 -0.84838,0.11341 -1.2175,0.32659 a 2.3011945,2.3011945 0 0 0 -0.006,0.004 l -14.25547,8.29532 -14.25494,-8.2951 a 2.3011945,2.3011945 0 0 0 -0.007,-0.004 c -0.36928,-0.21327 -0.78943,-0.32588 -1.2175,-0.3266 z m -0.004,7.55406 -11.28872,6.52053 v 13.04055 l 11.28872,6.52053 11.28924,-6.52053 v -13.04055 z m 30.96659,0 -11.28923,6.52053 v 13.04055 l 11.28923,6.52053 11.288722,-6.52053 v -13.04055 z m -30.96659,2.32543 9.27644,5.35782 v 10.71511 l -9.27644,5.35781 -9.27592,-5.35781 V 135.5877 Z m 30.96659,0 9.275922,5.35782 v 10.71511 l -9.275922,5.35781 -9.27592,-5.35781 V 135.5877 Z m -26.77253,24.68635 v 3.21428 l 11.28872,6.52053 11.28924,-6.52053 v -3.21428 h -2.0128 v 2.05156 l -9.27644,5.35833 -9.27592,-5.35833 v -2.05156 z m 22.57796,5.67201 -11.28924,6.5195 -11.28872,-6.51898 v 2.32388 l 11.28872,6.52002 11.28924,-6.52002 z" /></g><path
       id="path241"
       style="color:#000000;fill:#009ca6;fill-opacity:1;stroke-width:0.104868"
       d="m 114.93787,74.571178 c -0.88451,2e-5 -1.60143,0.71694 -1.60145,1.60146 2e-5,0.88452 0.71694,1.60144 1.60145,1.60145 0.56764,-2.6e-4 1.09277,-0.30069 1.38028,-0.79013 2.00292,1.49223 2.54954,4.01475 2.56057,6.37842 0.01,2.18203 -0.58904,4.52267 -0.78703,5.23586 l -5.54489,3.20238 v 13.041062 l 11.28924,6.52001 11.28923,-6.52001 V 91.800618 l -5.54437,-3.20238 c -0.19798,-0.71319 -0.7972,-3.05383 -0.78703,-5.23586 0.011,-2.36367 0.55713,-4.88619 2.56006,-6.37842 0.2875,0.48944 0.81264,0.78987 1.38027,0.79013 0.88452,-1e-5 1.60195,-0.71693 1.60197,-1.60145 -2e-5,-0.88452 -0.71745,-1.60144 -1.60197,-1.60146 -0.59958,5.3e-4 -1.1484,0.33601 -1.42265,0.8692 -3.05695,1.72242 -3.82693,5.10466 -3.84008,7.91838 -0.009,1.74791 0.26307,3.3324 0.47336,4.29483 l -4.10879,-2.37298 -4.1088,2.37298 c 0.21029,-0.96243 0.48203,-2.54692 0.47388,-4.29483 -0.0131,-2.81372 -0.78313,-6.19596 -3.84008,-7.91838 -0.27424,-0.53319 -0.82358,-0.8687 -1.42317,-0.8692 z m 8.89817,13.03435 9.27643,5.35781 v 10.715102 l -9.27643,5.35781 -9.27644,-5.35781 V 92.963338 Z m -15.2151,17.300752 v 5.2e-4 c -0.4311,-7.9e-4 -0.85462,0.1114 -1.22576,0.32557 a 2.3011945,2.3011945 0 0 0 -0.008,0.004 l -15.478645,9.00824 -5.29e-4,5.3e-4 c -0.754187,0.43705 -1.216067,1.24538 -1.219047,2.10736 a 2.3011945,2.3011945 0 0 0 0,0.008 v 18.02061 c 1.2e-5,0.86507 0.462697,1.67769 1.219047,2.11615 l 5.29e-4,5.3e-4 7.247104,4.21731 a 2.3011945,2.3011945 0 0 0 2.784331,-0.36174 l 0.21032,-0.21084 a 2.3011945,2.3011945 0 0 0 -0.46922,-3.61528 l -6.103508,-3.55226 v -15.20786 l 13.038998,-7.58765 13.03951,7.58765 v 19.95641 a 2.3011945,2.3011945 0 0 0 0.17519,0.88005 2.3011945,2.3011945 0 0 0 0,0.001 2.3011945,2.3011945 0 0 0 0.49868,0.74569 2.3011945,2.3011945 0 0 0 0.74672,0.49919 2.3011945,2.3011945 0 0 0 0.88005,0.17518 h 0.28629 a 2.3011945,2.3011945 0 0 0 0.88005,-0.17518 2.3011945,2.3011945 0 0 0 0.74672,-0.49919 2.3011945,2.3011945 0 0 0 0.49868,-0.74569 2.3011945,2.3011945 0 0 0 0,-5.3e-4 2.3011945,2.3011945 0 0 0 0,-5.3e-4 2.3011945,2.3011945 0 0 0 0.17518,-0.88005 v -19.95641 l 13.03952,-7.58765 13.03899,7.58765 v 15.20786 l -6.1035,3.55224 a 2.3011945,2.3011945 0 0 0 -0.46922,3.61528 l 0.21032,0.21084 a 2.3011945,2.3011945 0 0 0 2.78433,0.36174 l 7.2471,-4.21732 5.3e-4,-5.3e-4 c 0.75636,-0.43845 1.21902,-1.25107 1.21905,-2.11615 v -18.0206 a 2.3011945,2.3011945 0 0 1 0,-5.3e-4 2.3011945,2.3011945 0 0 1 0,-5.3e-4 2.3011945,2.3011945 0 0 1 0,-5.3e-4 2.3011945,2.3011945 0 0 1 0,-5.3e-4 2.3011945,2.3011945 0 0 1 0,-0.001 2.3011945,2.3011945 0 0 1 0,-5.3e-4 2.3011945,2.3011945 0 0 1 0,-5.3e-4 2.3011945,2.3011945 0 0 1 0,-5.2e-4 2.3011945,2.3011945 0 0 1 0,-5.3e-4 2.3011945,2.3011945 0 0 1 0,-5.3e-4 2.3011945,2.3011945 0 0 1 0,-5.3e-4 2.3011945,2.3011945 0 0 1 0,-5.3e-4 2.3011945,2.3011945 0 0 1 0,-5.3e-4 c -0.003,-0.86199 -0.46485,-1.67084 -1.21905,-2.10788 l -5.3e-4,-5.3e-4 -15.47864,-9.00772 a 2.3011945,2.3011945 0 0 0 -0.008,-0.005 c -0.37116,-0.21456 -0.79465,-0.32697 -1.22577,-0.32608 v -5.2e-4 c -0.42787,7.9e-4 -0.84838,0.11341 -1.2175,0.32659 a 2.3011945,2.3011945 0 0 0 -0.006,0.004 l -14.25547,8.29532 -14.25494,-8.2951 a 2.3011945,2.3011945 0 0 0 -0.007,-0.004 c -0.36928,-0.21327 -0.78943,-0.32588 -1.2175,-0.3266 z m -0.004,7.55406 -11.288718,6.52053 v 13.04055 l 11.288718,6.52053 11.28924,-6.52053 v -13.04055 z m 30.96659,0 -11.28923,6.52053 v 13.04055 l 11.28923,6.52053 11.28872,-6.52053 v -13.04055 z m -30.96659,2.32543 9.27644,5.35782 v 10.71511 l -9.27644,5.35781 -9.27592,-5.35781 v -10.71511 z m 30.96659,0 9.27592,5.35782 v 10.71511 l -9.27592,5.35781 -9.27592,-5.35781 V 120.14359 Z M 112.811,139.47212 v 3.21428 l 11.28872,6.52053 11.28924,-6.52053 v -3.21428 h -2.0128 v 2.05156 l -9.27644,5.35833 -9.27592,-5.35833 v -2.05156 z m 22.57796,5.67201 -11.28924,6.5195 -11.28872,-6.51898 v 2.32388 l 11.28872,6.52002 11.28924,-6.52002 z" /><path
       id="path1757"
       style="opacity:1;fill:#808080;stroke-width:1.06144"
       d="m -246.82181,65.959396 a 16.106821,16.106821 0 0 0 -16.10679,16.10678 v 32.213594 32.21357 a 16.106821,16.106821 0 0 0 16.10679,16.107 h 32.21379 32.21358 a 16.106821,16.106821 0 0 0 16.10679,-16.107 V 114.27977 82.066176 a 16.106821,16.106821 0 0 0 -16.10679,-16.10678 h -32.21358 z" /></g></svg>
